<svg width="60" height="60" viewBox="0 0 60 60" fill="none" xmlns="http://www.w3.org/2000/svg">
<path d="M30 57.025C28.275 57.025 26.65 56.15 25.5 54.625L21.75 49.625C21.675 49.525 21.375 49.375 21.225 49.375H20C9.575 49.375 3.125 46.55 3.125 32.5V20C3.125 8.95 8.95 3.125 20 3.125H30C31.025 3.125 31.875 3.975 31.875 5C31.875 6.025 31.025 6.875 30 6.875H20C11.05 6.875 6.875 11.05 6.875 20V32.5C6.875 43.8 10.75 45.625 20 45.625H21.25C22.525 45.625 23.975 46.35 24.75 47.375L28.5 52.375C29.375 53.525 30.625 53.525 31.5 52.375L35.25 47.375C36.075 46.275 37.375 45.625 38.75 45.625H40C48.95 45.625 53.125 41.45 53.125 32.5V20C53.125 18.975 53.975 18.125 55 18.125C56.025 18.125 56.875 18.975 56.875 20V32.5C56.875 43.55 51.05 49.375 40 49.375H38.75C38.55 49.375 38.375 49.475 38.25 49.625L34.5 54.625C33.35 56.15 31.725 57.025 30 57.025Z" fill="#00DB87"/>
<path d="M30 30C28.6 30 27.5 28.875 27.5 27.5C27.5 26.125 28.625 25 30 25C31.375 25 32.5 26.125 32.5 27.5C32.5 28.875 31.4 30 30 30Z" fill="#00DB87"/>
<path d="M40 30C38.6 30 37.5 28.875 37.5 27.5C37.5 26.125 38.625 25 40 25C41.375 25 42.5 26.125 42.5 27.5C42.5 28.875 41.4 30 40 30Z" fill="#00DB87"/>
<path d="M20 30C18.6 30 17.5 28.875 17.5 27.5C17.5 26.125 18.625 25 20 25C21.375 25 22.5 26.125 22.5 27.5C22.5 28.875 21.4 30 20 30Z" fill="#00DB87"/>
<path d="M45.0001 19.3747C42.8501 19.3747 37.7751 16.8247 36.2251 12.1497C35.6001 10.2997 35.7501 8.17473 36.6251 6.49973C37.4001 4.99973 38.7001 3.89973 40.3001 3.39973C41.9251 2.89973 43.6501 3.12473 45.0001 3.94973C46.3501 3.12473 48.0751 2.89973 49.7251 3.39973C51.3251 3.89973 52.6251 4.99973 53.4001 6.49973C54.2751 8.17473 54.4251 10.2997 53.8001 12.1497C52.2251 16.8997 46.9251 19.3747 45.0001 19.3747ZM39.7751 10.9497C40.8251 14.0997 44.4001 15.5497 45.0501 15.6247C45.7751 15.5497 49.2751 13.9247 50.2501 10.9747C50.5501 10.0747 50.4751 8.99973 50.0751 8.22473C49.7501 7.59973 49.2751 7.19973 48.6251 6.99973C47.9251 6.74973 46.9751 6.87473 46.5501 7.49973C46.2001 7.99973 45.6501 8.29973 45.0501 8.32473C44.4501 8.32473 43.8751 8.04973 43.5001 7.57473C42.9751 6.89973 42.0501 6.79973 41.3751 6.99973C40.7251 7.19973 40.2501 7.59973 39.9251 8.22473C39.5501 8.99973 39.4751 10.0497 39.7751 10.9497Z" fill="#00DB87"/>
</svg>
