<svg width="61" height="61" viewBox="0 0 61 61" fill="none" xmlns="http://www.w3.org/2000/svg">
<path d="M22.0391 36.4215C22.0391 39.7003 24.5553 42.3436 27.6816 42.3436H34.0611C36.7807 42.3436 38.992 40.0307 38.992 37.184C38.992 34.0832 37.6449 32.9903 35.637 32.2786L25.3941 28.7203C23.3861 28.0086 22.0391 26.9157 22.0391 23.8149C22.0391 20.9682 24.2503 18.6553 26.9699 18.6553H33.3495C36.4757 18.6553 38.992 21.2986 38.992 24.5774" stroke="white" stroke-width="3" stroke-linecap="round" stroke-linejoin="round"/>
<path d="M30.5 15.25V45.75" stroke="white" stroke-width="3" stroke-linecap="round" stroke-linejoin="round"/>
<path d="M30.4987 55.9168C44.5359 55.9168 55.9154 44.5374 55.9154 30.5002C55.9154 16.4629 44.5359 5.0835 30.4987 5.0835C16.4615 5.0835 5.08203 16.4629 5.08203 30.5002C5.08203 44.5374 16.4615 55.9168 30.4987 55.9168Z" stroke="white" stroke-width="3" stroke-linecap="round" stroke-linejoin="round"/>
<path d="M56 5L6 51.7529" stroke="#00DB87" stroke-width="3" stroke-linecap="round" stroke-linejoin="round"/>
</svg>
