<svg width="20" height="21" viewBox="0 0 20 21" fill="none" xmlns="http://www.w3.org/2000/svg">
<path d="M6.24987 13.2083C6.09154 13.2083 5.9332 13.15 5.8082 13.025C5.56654 12.7833 5.56654 12.3833 5.8082 12.1417L8.47487 9.47501C8.6082 9.34168 8.7832 9.27501 8.97487 9.29168C9.1582 9.30835 9.32487 9.40835 9.4332 9.56668L10.3415 10.9333L13.2999 7.97501C13.5415 7.73335 13.9415 7.73335 14.1832 7.97501C14.4249 8.21668 14.4249 8.61668 14.1832 8.85835L10.6832 12.3583C10.5499 12.4917 10.3749 12.5583 10.1832 12.5417C9.99987 12.525 9.8332 12.425 9.72487 12.2667L8.81654 10.9L6.69154 13.025C6.56654 13.15 6.4082 13.2083 6.24987 13.2083Z" fill="#00DB87"/>
<path d="M13.7507 10.7083C13.409 10.7083 13.1257 10.425 13.1257 10.0833V9.04166H12.084C11.7423 9.04166 11.459 8.75832 11.459 8.41666C11.459 8.07499 11.7423 7.79166 12.084 7.79166H13.7507C14.0923 7.79166 14.3757 8.07499 14.3757 8.41666V10.0833C14.3757 10.425 14.0923 10.7083 13.7507 10.7083Z" fill="#00DB87"/>
<path d="M12.4993 19.4583H7.49935C2.97435 19.4583 1.04102 17.525 1.04102 13V7.99999C1.04102 3.47499 2.97435 1.54166 7.49935 1.54166H12.4993C17.0243 1.54166 18.9577 3.47499 18.9577 7.99999V13C18.9577 17.525 17.0243 19.4583 12.4993 19.4583ZM7.49935 2.79166C3.65768 2.79166 2.29102 4.15832 2.29102 7.99999V13C2.29102 16.8417 3.65768 18.2083 7.49935 18.2083H12.4993C16.341 18.2083 17.7077 16.8417 17.7077 13V7.99999C17.7077 4.15832 16.341 2.79166 12.4993 2.79166H7.49935Z" fill="#00DB87"/>
</svg>
