<svg width="50" height="50" viewBox="0 0 50 50" fill="none" xmlns="http://www.w3.org/2000/svg">
<g clip-path="url(#clip0_521_4084)">
<path d="M0.000127377 23.4406C0.217519 22.1093 0.380562 20.7672 0.663171 19.4523C1.37513 16.1215 2.79904 13.095 4.79361 10.3293C9.04904 4.43383 14.8643 1.16823 22.0273 0.173885C22.4458 0.114116 22.8697 0.108682 23.3262 0.0760803V10.5521C18.0327 11.378 14.0816 14.1056 11.7773 18.9904C10.1903 22.3538 10.0273 25.8477 11.1414 29.3958C13.4621 36.7638 21.973 41.8387 30.6306 38.3667C32.2501 41.4258 33.8697 44.4958 35.511 47.6038C33.7066 48.4786 31.8697 49.0872 29.9621 49.4512C28.7664 49.6794 27.5599 49.8207 26.3534 50H23.5001C23.3534 49.962 23.2066 49.8968 23.0545 49.8859C16.5001 49.3806 11.0925 46.4519 6.59252 41.8387C3.52187 38.6873 1.59795 34.8457 0.652301 30.5477C0.364258 29.2328 0.206649 27.8907 -0.0107422 26.5595C-0.0107422 25.5216 -0.0107422 24.4838 -0.0107422 23.4406H0.000127377Z" fill="#00DB87"/>
<path d="M50.0002 23.9839C49.8209 24.0057 49.6415 24.0491 49.4676 24.0491C46.2502 24.0491 43.0383 24.0491 39.8209 24.0491C39.7122 24.0491 39.598 24.0274 39.5056 24.0165C38.4024 16.4366 34.1035 11.9431 26.5654 10.4923V0C27.8806 0.206477 29.1524 0.33145 30.397 0.613997C40.4513 2.90698 47.9133 10.8292 49.6143 20.9791C49.772 21.93 49.8752 22.8918 50.0002 23.8535V23.9894V23.9839Z" fill="#00DB87"/>
<path d="M49.8806 27.2767C48.9241 35.3293 45.0926 41.5399 38.3426 46.1095C36.6904 42.9852 35.06 39.9098 33.4023 36.7746C36.5871 34.3784 38.5817 31.2378 39.2828 27.2767H49.886H49.8806Z" fill="#00DB87"/>
</g>
<defs>
<clipPath id="clip0_521_4084">
<rect width="50" height="50" fill="white"/>
</clipPath>
</defs>
</svg>
